<svg width="24" height="24" viewBox="0 0 24 24" fill="none" xmlns="http://www.w3.org/2000/svg">
<g clip-path="url(#clip0_25_84)">
<path d="M17.8125 12C17.8134 13.3678 17.3316 14.6921 16.4519 15.7395C15.5721 16.787 14.351 17.4903 13.0036 17.7257C11.6561 17.9611 10.2689 17.7134 9.08614 17.0262C7.90342 16.3391 7.00115 15.2566 6.53828 13.9694L3.21368 16.6291C4.24745 18.5942 5.90984 20.1563 7.93541 21.0659C9.96098 21.9755 12.2329 22.1802 14.3885 21.6473C16.544 21.1144 18.4588 19.8746 19.8272 18.1259C21.1955 16.3772 21.9385 14.2204 21.9375 12" fill="#00AC47"/>
<path d="M17.8125 12C17.8118 12.9248 17.59 13.8359 17.1658 14.6577C16.7416 15.4794 16.1272 16.1878 15.3738 16.724L18.6606 19.3534C19.6913 18.4255 20.5155 17.2915 21.08 16.0247C21.6445 14.758 21.9366 13.3868 21.9375 12" fill="#4285F4"/>
<path d="M6.1875 12C6.18894 11.3281 6.30764 10.6616 6.53827 10.0306L3.21367 7.37092C2.45774 8.79681 2.0625 10.3861 2.0625 12C2.0625 13.6139 2.45774 15.2032 3.21367 16.6291L6.53827 13.9694C6.30764 13.3384 6.18894 12.6719 6.1875 12Z" fill="#FFBA00"/>
<path d="M12 6.1875C13.2299 6.18784 14.4276 6.58088 15.4185 7.30935L18.4635 4.46738C17.3332 3.49279 15.9973 2.78607 14.5556 2.39994C13.114 2.01382 11.6037 1.95825 10.1376 2.23741C8.67146 2.51656 7.28729 3.12321 6.08839 4.0121C4.88949 4.90099 3.90681 6.04916 3.21368 7.37093L6.53828 10.0306C6.94375 8.9066 7.6855 7.93476 8.6627 7.24716C9.6399 6.55957 10.8051 6.18958 12 6.1875Z" fill="#EA4435"/>
<path d="M21.9375 11.25V12L20.25 14.625H12.375V10.5H21.1875C21.3864 10.5 21.5772 10.579 21.7178 10.7197C21.8585 10.8603 21.9375 11.0511 21.9375 11.25Z" fill="#4285F4"/>
</g>
<defs>
<clipPath id="clip0_25_84">
<rect width="24" height="24" fill="white"/>
</clipPath>
</defs>
</svg>
